<svg width="198" height="60" viewBox="0 0 198 60" fill="none" xmlns="http://www.w3.org/2000/svg">
<path d="M99.5221 9.2C98.0021 9.2 96.5941 9.576 95.2981 10.328C94.0181 11.08 93.0021 12.104 92.2501 13.4C91.5141 14.68 91.1461 16.08 91.1461 17.6C91.1461 19.12 91.5141 20.528 92.2501 21.824C93.0021 23.104 94.0181 24.12 95.2981 24.872C96.5941 25.624 98.0021 26 99.5221 26C100.818 26 102.026 25.728 103.146 25.184C104.282 24.624 105.242 23.864 106.026 22.904C106.042 22.872 106.074 22.832 106.122 22.784C106.33 22.48 106.434 22.152 106.434 21.8C106.434 21.608 106.402 21.424 106.338 21.248C106.226 20.88 106.002 20.576 105.666 20.336C105.346 20.096 104.994 19.976 104.61 19.976C104.482 19.976 104.354 19.992 104.226 20.024C103.842 20.104 103.522 20.288 103.266 20.576C103.25 20.608 103.21 20.664 103.146 20.744C102.186 21.848 100.978 22.4 99.5221 22.4C98.2101 22.4 97.0821 21.936 96.1381 21.008C95.2101 20.064 94.7461 18.928 94.7461 17.6C94.7461 16.272 95.2101 15.144 96.1381 14.216C97.0821 13.272 98.2101 12.8 99.5221 12.8C100.338 12.8 101.098 12.992 101.802 13.376C101.77 13.216 101.754 13.056 101.754 12.896C101.754 12.256 101.97 11.712 102.402 11.264C102.85 10.8 103.386 10.552 104.01 10.52C102.65 9.64 101.154 9.2 99.5221 9.2ZM104.13 11.072C103.586 11.072 103.138 11.272 102.786 11.672C102.466 12.008 102.306 12.416 102.306 12.896C102.338 13.216 102.402 13.472 102.498 13.664C102.594 13.856 102.754 14.072 102.978 14.312C103.314 14.568 103.698 14.696 104.13 14.696C104.658 14.696 105.098 14.504 105.45 14.12C105.77 13.768 105.93 13.36 105.93 12.896C105.93 12.48 105.802 12.112 105.546 11.792C105.146 11.328 104.674 11.088 104.13 11.072ZM106.098 15.848H100.65C100.058 15.848 99.5861 16.08 99.2341 16.544C98.9781 16.864 98.8501 17.232 98.8501 17.648C98.8501 18.048 98.9621 18.4 99.1861 18.704C99.5381 19.2 100.026 19.448 100.65 19.448H103.938H104.514C104.706 19.432 104.898 19.44 105.09 19.472C105.41 19.552 105.706 19.688 105.978 19.88C106.218 20.056 106.418 20.272 106.578 20.528C106.786 20.816 106.914 21.136 106.962 21.488C107.57 20.304 107.882 19.04 107.898 17.696C107.898 17.68 107.898 17.664 107.898 17.648C107.898 17.648 107.898 17.632 107.898 17.6C107.882 17.136 107.722 16.736 107.418 16.4C107.05 16.032 106.61 15.848 106.098 15.848ZM122.628 9.2C122.26 9.2 121.924 9.304 121.62 9.512C121.348 9.688 121.14 9.92 120.996 10.208L119.412 13.064C119.668 12.968 119.94 12.92 120.228 12.92C120.308 12.92 120.388 12.92 120.468 12.92C120.772 12.952 121.068 13.04 121.356 13.184C121.372 13.2 121.388 13.216 121.404 13.232C121.58 13.328 121.74 13.448 121.884 13.592C122.044 13.752 122.18 13.928 122.292 14.12L128.412 25.04C128.572 25.328 128.796 25.56 129.084 25.736C129.372 25.912 129.684 26 130.02 26C130.5 26 130.916 25.832 131.268 25.496C131.636 25.128 131.82 24.696 131.82 24.2C131.82 23.896 131.74 23.608 131.58 23.336L124.236 10.184C124.108 9.944 123.932 9.736 123.708 9.56C123.564 9.448 123.396 9.36 123.204 9.296C123.028 9.232 122.836 9.2 122.628 9.2ZM120.18 13.448C119.524 13.464 119.036 13.752 118.716 14.312L113.652 23.336C113.508 23.608 113.436 23.896 113.436 24.2C113.436 24.68 113.604 25.096 113.94 25.448C114.292 25.816 114.724 26 115.236 26C115.572 26 115.884 25.912 116.172 25.736C116.46 25.56 116.684 25.328 116.844 25.04L121.884 16.016C121.996 15.776 122.052 15.528 122.052 15.272C122.052 15.096 122.028 14.92 121.98 14.744C121.836 14.28 121.548 13.928 121.116 13.688C120.844 13.528 120.548 13.448 120.228 13.448C120.212 13.448 120.196 13.448 120.18 13.448ZM155.358 9.2H155.286C155.206 9.2 155.126 9.208 155.046 9.224C154.886 9.256 154.734 9.304 154.59 9.368C154.414 9.448 154.254 9.552 154.11 9.68C154.078 9.712 154.038 9.744 153.99 9.776L147.942 15.2L141.99 9.872C141.814 9.712 141.662 9.584 141.534 9.488C141.214 9.296 140.878 9.2 140.526 9.2C140.494 9.2 140.462 9.208 140.43 9.224C140.062 9.24 139.726 9.36 139.422 9.584C139.23 9.744 139.07 9.936 138.942 10.16C138.83 10.384 138.766 10.632 138.75 10.904C138.75 10.936 138.75 10.992 138.75 11.072V15.056C138.942 14.832 139.166 14.648 139.422 14.504C139.774 14.312 140.15 14.216 140.55 14.216C140.886 14.216 141.206 14.288 141.51 14.432C141.702 14.512 141.894 14.632 142.086 14.792C142.214 14.888 142.382 15.04 142.59 15.248C142.814 15.44 142.942 15.552 142.974 15.584L146.742 18.944C146.87 19.04 146.998 19.12 147.126 19.184C147.382 19.328 147.654 19.4 147.942 19.4C148.182 19.4 148.414 19.352 148.638 19.256C148.798 19.192 148.95 19.104 149.094 18.992C149.094 18.976 149.094 18.968 149.094 18.968C149.11 18.968 149.126 18.96 149.142 18.944L153.006 15.488C153.054 15.44 153.222 15.28 153.51 15.008C153.814 14.736 154.054 14.552 154.23 14.456C154.566 14.28 154.934 14.192 155.334 14.192C155.654 14.192 155.966 14.256 156.27 14.384C156.606 14.528 156.894 14.736 157.134 15.008V11.12C157.134 11.072 157.134 11.032 157.134 11C157.134 10.536 156.982 10.136 156.678 9.8C156.406 9.512 156.086 9.328 155.718 9.248C155.59 9.216 155.47 9.2 155.358 9.2ZM155.334 14.744C154.854 14.744 154.438 14.904 154.086 15.224C153.718 15.56 153.534 15.976 153.534 16.472V24.152V24.2C153.534 24.696 153.702 25.12 154.038 25.472C154.39 25.824 154.822 26 155.334 26C155.862 26 156.302 25.808 156.654 25.424C156.974 25.088 157.134 24.68 157.134 24.2V24.176V16.448C157.118 16.016 156.958 15.64 156.654 15.32C156.302 14.936 155.862 14.744 155.334 14.744ZM140.55 14.768C140.054 14.768 139.63 14.944 139.278 15.296C138.942 15.616 138.766 16.016 138.75 16.496V24.152V24.2C138.75 24.696 138.918 25.12 139.254 25.472C139.622 25.824 140.054 26 140.55 26C141.078 26 141.518 25.808 141.87 25.424C142.19 25.088 142.35 24.68 142.35 24.2V24.176V16.496C142.334 15.968 142.118 15.528 141.702 15.176C141.366 14.904 140.982 14.768 140.55 14.768ZM165.886 9.2H165.862C165.318 9.2 164.87 9.416 164.518 9.848C164.23 10.168 164.086 10.544 164.086 10.976V11V20.144C164.102 20.496 164.214 20.816 164.422 21.104C164.774 21.6 165.262 21.848 165.886 21.848C166.302 21.848 166.678 21.72 167.014 21.464C167.446 21.128 167.67 20.68 167.686 20.12V19.4H175.054H175.078C175.51 19.4 175.894 19.264 176.23 18.992C176.662 18.624 176.878 18.16 176.878 17.6C176.878 17.152 176.734 16.76 176.446 16.424C176.078 16.008 175.622 15.8 175.078 15.8H175.054H167.686V12.8V11C167.686 10.664 167.75 10.336 167.878 10.016C168.022 9.696 168.23 9.424 168.502 9.2H165.886ZM169.918 9.2C169.326 9.216 168.862 9.472 168.526 9.968C168.318 10.288 168.214 10.632 168.214 11C168.214 11.416 168.342 11.792 168.598 12.128C168.95 12.576 169.406 12.8 169.966 12.8H177.022C177.054 12.8 177.086 12.8 177.118 12.8C177.63 12.784 178.054 12.584 178.39 12.2C178.71 11.864 178.87 11.464 178.87 11C178.87 10.472 178.67 10.032 178.27 9.68C177.95 9.376 177.558 9.216 177.094 9.2C177.078 9.2 177.07 9.2 177.07 9.2H177.046H169.918ZM165.886 22.4C165.15 22.4 164.55 22.128 164.086 21.584V24.152V24.2C164.086 24.696 164.254 25.12 164.59 25.472C164.958 25.824 165.39 26 165.886 26C165.934 26 165.966 26 165.982 26H176.974C177.006 26 177.038 26 177.07 26C177.566 26 177.99 25.824 178.342 25.472C178.694 25.12 178.87 24.696 178.87 24.2C178.87 23.72 178.702 23.304 178.366 22.952C178.03 22.6 177.622 22.416 177.142 22.4C177.078 22.4 177.03 22.4 176.998 22.4H167.686H165.886ZM100.474 36.2H96.9704C97.2104 36.408 97.4024 36.664 97.5464 36.968C97.7064 37.288 97.7864 37.632 97.7864 38C97.7864 38.176 97.7704 38.344 97.7384 38.504C97.6264 38.968 97.2504 39.576 96.6104 40.328L88.4024 49.976L88.3784 50.024C88.0904 50.36 87.9464 50.752 87.9464 51.2C87.9464 51.232 87.9464 51.272 87.9464 51.32C87.9784 51.816 88.1864 52.232 88.5704 52.568C88.9064 52.856 89.2904 53 89.7224 53C89.7544 53 89.8344 53 89.9624 53C90.1064 53 90.2024 53 90.2504 53H93.6824C93.3944 52.744 93.1784 52.44 93.0344 52.088C92.9224 51.8 92.8664 51.504 92.8664 51.2C92.8664 51.008 92.8904 50.816 92.9384 50.624C93.0504 50.208 93.4264 49.624 94.0664 48.872L102.298 39.176C102.586 38.84 102.73 38.448 102.73 38C102.73 37.984 102.73 37.976 102.73 37.976C102.714 37.432 102.506 36.992 102.106 36.656C102.106 36.64 102.098 36.632 102.082 36.632C101.746 36.344 101.362 36.2 100.93 36.2C100.722 36.2 100.57 36.2 100.474 36.2ZM89.7944 36.2H89.7464C89.2504 36.2 88.8344 36.368 88.4984 36.704C88.1304 37.072 87.9464 37.504 87.9464 38C87.9464 38.528 88.1384 38.968 88.5224 39.32C88.8744 39.64 89.2824 39.8 89.7464 39.8H89.7704H95.4824C96.1064 39.8 96.5944 39.536 96.9464 39.008C97.1384 38.704 97.2344 38.368 97.2344 38C97.2344 37.488 97.0584 37.056 96.7064 36.704C96.3864 36.384 96.0024 36.216 95.5544 36.2H89.7944ZM95.1464 49.4C94.6184 49.4 94.1784 49.608 93.8264 50.024C93.5384 50.36 93.3944 50.752 93.3944 51.2C93.3944 51.504 93.4744 51.792 93.6344 52.064C93.9544 52.672 94.4504 52.984 95.1224 53H100.93C101.394 53 101.794 52.848 102.13 52.544C102.514 52.192 102.714 51.752 102.73 51.224V51.176C102.714 50.632 102.498 50.184 102.082 49.832C101.762 49.544 101.378 49.4 100.93 49.4H95.1464ZM111.498 36.2H111.45C110.906 36.2 110.458 36.408 110.106 36.824C109.818 37.16 109.674 37.544 109.674 37.976V38V43.064C110.154 42.52 110.754 42.248 111.474 42.248C112.21 42.248 112.81 42.528 113.274 43.088V38C113.274 37.536 113.122 37.136 112.818 36.8C112.466 36.4 112.026 36.2 111.498 36.2ZM111.474 42.8C111.106 42.8 110.77 42.896 110.466 43.088C110.178 43.28 109.962 43.536 109.818 43.856C109.722 44.08 109.674 44.328 109.674 44.6C109.674 44.904 109.738 45.176 109.866 45.416C110.01 45.72 110.226 45.96 110.514 46.136C110.802 46.312 111.122 46.4 111.474 46.4C111.922 46.4 112.314 46.256 112.65 45.968C112.858 45.792 113.018 45.584 113.13 45.344C113.226 45.088 113.274 44.832 113.274 44.576C113.274 44.384 113.242 44.2 113.178 44.024C113.082 43.72 112.914 43.456 112.674 43.232C112.322 42.944 111.922 42.8 111.474 42.8ZM113.274 46.112C112.81 46.688 112.21 46.976 111.474 46.976C110.754 46.976 110.154 46.696 109.674 46.136V51.152V51.2C109.674 51.696 109.85 52.12 110.202 52.472C110.554 52.824 110.978 53 111.474 53C112.002 53 112.442 52.808 112.794 52.424C113.114 52.088 113.274 51.68 113.274 51.2V51.176V46.112ZM122.021 36.2C121.477 36.2 121.029 36.408 120.677 36.824C120.389 37.16 120.245 37.544 120.245 37.976V38V47.096C120.245 47.512 120.381 47.88 120.653 48.2C121.005 48.648 121.469 48.872 122.045 48.872C122.477 48.872 122.861 48.736 123.197 48.464C123.613 48.128 123.829 47.696 123.845 47.168V38C123.845 37.536 123.693 37.136 123.389 36.8C123.037 36.4 122.597 36.2 122.069 36.2H122.021ZM120.245 48.584V51.152V51.2C120.245 51.696 120.413 52.12 120.749 52.472C121.117 52.824 121.549 53 122.045 53C122.045 53 122.061 53 122.093 53H133.229C133.693 53 134.093 52.848 134.429 52.544C134.829 52.192 135.029 51.752 135.029 51.224V51.176C135.013 50.632 134.797 50.184 134.381 49.832C134.061 49.544 133.685 49.4 133.253 49.4H133.229H123.845H122.045C121.661 49.4 121.301 49.32 120.965 49.16C120.693 49.016 120.453 48.824 120.245 48.584ZM143.749 36.2C143.205 36.2 142.757 36.408 142.405 36.824C142.117 37.16 141.973 37.544 141.973 37.976V38V47.096C141.973 47.512 142.109 47.88 142.381 48.2C142.733 48.648 143.197 48.872 143.773 48.872C144.205 48.872 144.589 48.736 144.925 48.464C145.341 48.128 145.557 47.696 145.573 47.168V38C145.573 37.536 145.421 37.136 145.117 36.8C144.765 36.4 144.325 36.2 143.797 36.2H143.749ZM141.973 48.584V51.152V51.2C141.973 51.696 142.141 52.12 142.477 52.472C142.845 52.824 143.277 53 143.773 53C143.773 53 143.789 53 143.821 53H154.957C155.421 53 155.821 52.848 156.157 52.544C156.557 52.192 156.757 51.752 156.757 51.224V51.176C156.741 50.632 156.525 50.184 156.109 49.832C155.789 49.544 155.413 49.4 154.981 49.4H154.957H145.573H143.773C143.389 49.4 143.029 49.32 142.693 49.16C142.421 49.016 142.181 48.824 141.973 48.584ZM172.892 36.2C172.524 36.2 172.188 36.304 171.884 36.512C171.612 36.688 171.404 36.92 171.26 37.208L169.676 40.064C169.932 39.968 170.204 39.92 170.492 39.92C170.572 39.92 170.652 39.92 170.732 39.92C171.036 39.952 171.332 40.04 171.62 40.184C171.636 40.2 171.652 40.216 171.668 40.232C171.844 40.328 172.004 40.448 172.148 40.592C172.308 40.752 172.444 40.928 172.556 41.12L178.676 52.04C178.836 52.328 179.06 52.56 179.348 52.736C179.636 52.912 179.948 53 180.284 53C180.764 53 181.18 52.832 181.532 52.496C181.9 52.128 182.084 51.696 182.084 51.2C182.084 50.896 182.004 50.608 181.844 50.336L174.5 37.184C174.372 36.944 174.196 36.736 173.972 36.56C173.828 36.448 173.66 36.36 173.468 36.296C173.292 36.232 173.1 36.2 172.892 36.2ZM170.444 40.448C169.788 40.464 169.3 40.752 168.98 41.312L163.916 50.336C163.772 50.608 163.7 50.896 163.7 51.2C163.7 51.68 163.868 52.096 164.204 52.448C164.556 52.816 164.988 53 165.5 53C165.836 53 166.148 52.912 166.436 52.736C166.724 52.56 166.948 52.328 167.108 52.04L172.148 43.016C172.26 42.776 172.316 42.528 172.316 42.272C172.316 42.096 172.292 41.92 172.244 41.744C172.1 41.28 171.812 40.928 171.38 40.688C171.108 40.528 170.812 40.448 170.492 40.448C170.476 40.448 170.46 40.448 170.444 40.448Z" fill="#0A0D27"/>
<path d="M44.3746 0.979225C41.0445 1.44959 38.8087 3.71519 36.3983 5.62009C35.7743 6.11321 35.1314 6.90374 34.3982 7.24667C33.4049 7.71128 31.5194 7.38814 30.416 7.38814C27.9728 7.38814 25.7451 7.5252 23.5134 8.52649C16.6826 11.5913 16.304 17.3445 16.304 23.3551V32.9903V41.9373C16.304 43.9099 16.1875 45.8421 17.7168 47.4431C19.9363 49.7668 22.8492 49.6454 25.9677 49.6454H37.0119C38.6064 49.6454 40.6821 49.3265 42.2242 49.6892C43.3652 49.9575 42.9941 51.6012 42.9941 52.3983C42.9941 54.4403 42.24 57.6972 44.3753 59.0537C46.2052 60.2162 50.0404 59.5559 52.1976 59.5559H66.6164C68.9258 59.5559 71.5514 59.8694 73.8258 59.5106C77.1252 58.9903 76.4334 55.4044 76.4334 53.2242V33.2656V19.2257C76.4334 16.4779 76.7703 13.5738 75.597 10.9669C74.3005 8.08624 71.9266 6.33245 69.3774 4.35993C67.3798 2.81428 65.4141 1.53559 62.7816 1.05695C60.5525 0.651683 58.1119 0.925585 56.0324 1.72714C55.1149 2.08074 53.7945 3.32149 52.8112 3.29987C51.9634 3.28123 50.8252 2.13774 50.0501 1.78034C48.3219 0.983451 46.3005 0.707196 44.3746 0.979225ZM48.2094 6.42462C46.3048 7.29904 44.4832 7.38814 42.3806 7.38814C43.3601 5.65219 46.6835 4.83152 48.2094 6.42462ZM71.2181 54.876H48.2094V50.8842C48.2093 50.4257 48.0266 49.6834 48.328 49.2862C48.7802 48.6902 49.9809 48.3419 50.6637 47.9937C52.7018 46.9543 54.7703 45.96 56.7993 44.9066C58.3138 44.1203 59.4447 42.7304 58.2354 41.2511C57.0742 39.831 55.4717 40.3062 54.0383 41.0055C51.5454 42.2218 49.0227 43.9353 46.3687 44.8286C44.7495 45.3737 42.2604 44.9655 40.5399 44.9655H27.8084C26.3874 44.9655 22.9267 45.5272 21.8926 44.5141C21.3125 43.9459 21.5193 42.9207 21.5193 42.2126V36.7067H28.5753C29.5359 36.7067 30.8879 36.4891 31.7966 36.7897C34.1052 37.5537 34.6998 40.2086 37.6254 39.9974C40.043 39.8229 40.8822 37.2256 42.9941 36.7505C45.4409 36.2 49.9217 37.9232 50.8471 34.7797C51.4714 32.6587 48.856 32.0268 47.1357 32.0268C45.2301 32.0268 42.6286 31.6177 40.8466 32.2959C39.5094 32.8049 38.3557 34.0267 37.3186 34.9173H37.1652C36.109 33.9695 35.0673 32.7219 33.6373 32.2288C32.441 31.8164 30.911 32.0268 29.6491 32.0268H21.5193V21.428C21.5193 18.886 21.4307 16.4637 23.4062 14.4086C25.7476 11.973 28.995 12.0681 32.2567 12.0681C37.5607 12.0681 44.1358 13.0113 49.1298 11.18C53.075 9.73335 56.2977 5.55756 60.7875 5.59927C63.9013 5.6282 67.1822 8.46986 69.1567 10.4287C72.4144 13.6605 71.2181 19.1916 71.2181 23.2174V54.876ZM59.7138 7.99917C51.2855 9.1902 53.5106 20.7582 61.8612 19.5782C70.2175 18.3973 68.025 6.82474 59.7138 7.99917ZM60.4815 12.6805C62.0504 12.3335 62.6046 14.5574 61.092 14.8969C59.4886 15.2565 58.8502 13.0413 60.4815 12.6805ZM25.8143 13.9474C22.6782 14.8311 24.3951 19.2611 27.5016 18.3688C30.8245 17.4143 29.1148 13.0173 25.8143 13.9474Z" fill="#409FE5"/>
<path d="M44.3746 0.979221C41.0445 1.44958 38.8087 3.71518 36.3983 5.62009C35.7743 6.11321 35.1314 6.90373 34.3982 7.24667C33.4049 7.71128 31.5194 7.38814 30.416 7.38814C27.9728 7.38814 25.7451 7.52519 23.5134 8.52648C16.6826 11.5913 16.304 17.3445 16.304 23.3551V32.9903V41.9373C16.304 43.9099 16.1875 45.8421 17.7168 47.4431C19.9363 49.7668 22.8492 49.6454 25.9677 49.6454H37.0119C38.6064 49.6454 40.6821 49.3265 42.2242 49.6892C43.3652 49.9575 42.9941 51.6012 42.9941 52.3983C42.9941 54.4403 42.24 57.6972 44.3753 59.0537C46.2052 60.2162 50.0404 59.5559 52.1976 59.5559H66.6164C68.9258 59.5559 71.5514 59.8693 73.8258 59.5106C77.1252 58.9903 76.4334 55.4044 76.4334 53.2242V33.2656V19.2257C76.4334 16.4779 76.7703 13.5738 75.597 10.9669C74.3005 8.08624 71.9266 6.33245 69.3774 4.35993C67.3798 2.81428 65.4141 1.53559 62.7816 1.05695C60.5525 0.651679 58.1119 0.925581 56.0324 1.72713C55.1149 2.08073 53.7945 3.32149 52.8112 3.29986C51.9634 3.28123 50.8252 2.13773 50.0501 1.78033C48.3219 0.983447 46.3005 0.707192 44.3746 0.979221ZM48.2094 6.42462C46.3048 7.29904 44.4832 7.38814 42.3806 7.38814C43.3601 5.65219 46.6835 4.83152 48.2094 6.42462ZM71.2181 54.876H48.2094V50.8842C48.2093 50.4257 48.0266 49.6834 48.328 49.2862C48.7802 48.6902 49.9809 48.3419 50.6637 47.9937C52.7018 46.9543 54.7703 45.96 56.7993 44.9066C58.3138 44.1203 59.4447 42.7304 58.2354 41.2511C57.0742 39.831 55.4717 40.3062 54.0383 41.0055C51.5454 42.2218 49.0227 43.9353 46.3687 44.8286C44.7495 45.3737 42.2604 44.9655 40.5399 44.9655H27.8084C26.3874 44.9655 22.9267 45.5272 21.8926 44.5141C21.3125 43.9459 21.5193 42.9207 21.5193 42.2125V36.7067H28.5753C29.5359 36.7067 30.8879 36.4891 31.7966 36.7897C34.1052 37.5536 34.6998 40.2086 37.6254 39.9974C40.043 39.8229 40.8822 37.2256 42.9941 36.7505C45.4409 36.2 49.9217 37.9232 50.8471 34.7797C51.4714 32.6587 48.856 32.0268 47.1357 32.0268C45.2301 32.0268 42.6286 31.6177 40.8466 32.2959C39.5094 32.8049 38.3557 34.0267 37.3186 34.9173H37.1652C36.109 33.9695 35.0673 32.7219 33.6373 32.2288C32.441 31.8164 30.911 32.0268 29.6491 32.0268H21.5193V21.428C21.5193 18.886 21.4307 16.4637 23.4062 14.4086C25.7476 11.973 28.995 12.0681 32.2567 12.0681C37.5607 12.0681 44.1358 13.0112 49.1298 11.18C53.075 9.73335 56.2977 5.55756 60.7875 5.59926C63.9013 5.6282 67.1822 8.46986 69.1567 10.4287C72.4144 13.6605 71.2181 19.1915 71.2181 23.2174V54.876ZM59.7138 7.99916C51.2855 9.1902 53.5106 20.7582 61.8612 19.5782C70.2175 18.3973 68.025 6.82474 59.7138 7.99916ZM60.4815 12.6805C62.0504 12.3335 62.6046 14.5574 61.092 14.8969C59.4886 15.2565 58.8502 13.0413 60.4815 12.6805ZM25.8143 13.9474C22.6782 14.8311 24.3951 19.2611 27.5016 18.3688C30.8245 17.4143 29.1148 13.0173 25.8143 13.9474Z" fill="url(#paint0_linear_12_90)"/>
<defs>
<linearGradient id="paint0_linear_12_90" x1="46.3979" y1="0.871338" x2="46.3979" y2="59.7427" gradientUnits="userSpaceOnUse">
<stop stop-color="#0D7DCF"/>
<stop offset="1" stop-color="#18D4EE"/>
</linearGradient>
</defs>
</svg>
